HIERARCHY
ROOT joint_Root
{
	OFFSET 0.0 0.0 0.0
	CHANNELS 6 Xposition Yposition Zposition Zrotation Xrotation Yrotation 
	JOINT Hips
	{
		OFFSET 4.5925 91.4895 -427.239
		CHANNELS 6 Xposition Yposition Zposition Zrotation Xrotation Yrotation 
		JOINT Spine
		{
			OFFSET 15.7357 0.0 0.0
			CHANNELS 6 Xposition Yposition Zposition Zrotation Xrotation Yrotation 
			JOINT Chest
			{
				OFFSET 8.98455 -0.406207 0.0
				CHANNELS 6 Xposition Yposition Zposition Zrotation Xrotation Yrotation 
				JOINT Neck
				{
					OFFSET 16.3773 0.0 0.0
					CHANNELS 6 Xposition Yposition Zposition Zrotation Xrotation Yrotation 
					JOINT Head
					{
						OFFSET 6.45672 0.0 0.0
						CHANNELS 6 Xposition Yposition Zposition Zrotation Xrotation Yrotation 
						End Site
						{
							OFFSET 0.0 0.0 0.0
						}
					}
				}
				JOINT Shoulder_L
				{
					OFFSET 12.9942 -0.242716 4.98039
					CHANNELS 6 Xposition Yposition Zposition Zrotation Xrotation Yrotation 
					JOINT UpperArm_L
					{
						OFFSET 5.34809 0.0 0.0
						CHANNELS 6 Xposition Yposition Zposition Zrotation Xrotation Yrotation 
						JOINT LowerArm_L
						{
							OFFSET 24.3286 1.87007e-05 0.0
							CHANNELS 6 Xposition Yposition Zposition Zrotation Xrotation Yrotation 
							JOINT Hand_L
							{
								OFFSET 22.2916 0.0 0.0
								CHANNELS 6 Xposition Yposition Zposition Zrotation Xrotation Yrotation 
								End Site
								{
									OFFSET 0.0 0.0 0.0
								}
							}
						}
					}
				}
				JOINT Shoulder_R
				{
					OFFSET 12.9945 -0.242716 -4.98039
					CHANNELS 6 Xposition Yposition Zposition Zrotation Xrotation Yrotation 
					JOINT UpperArm_R
					{
						OFFSET -5.34813 0.0 0.0
						CHANNELS 6 Xposition Yposition Zposition Zrotation Xrotation Yrotation 
						JOINT LowerArm_R
						{
							OFFSET -24.3289 0.000322201 0.0
							CHANNELS 6 Xposition Yposition Zposition Zrotation Xrotation Yrotation 
							JOINT Hand_R
							{
								OFFSET -22.2915 -0.000108084 0.0
								CHANNELS 6 Xposition Yposition Zposition Zrotation Xrotation Yrotation 
								End Site
								{
									OFFSET 0.0 0.0 0.0
								}
							}
						}
					}
				}
			}
		}
		JOINT UpperLeg_L
		{
			OFFSET -2.19248 -6.46944 0.0
			CHANNELS 6 Xposition Yposition Zposition Zrotation Xrotation Yrotation 
			JOINT LowerLeg_L
			{
				OFFSET 39.0811 0.0 -1.23785e-05
				CHANNELS 6 Xposition Yposition Zposition Zrotation Xrotation Yrotation 
				JOINT Foot_L
				{
					OFFSET 40.9854 0.0 -1.26872e-05
					CHANNELS 6 Xposition Yposition Zposition Zrotation Xrotation Yrotation 
					JOINT Toes_L
					{
						OFFSET 11.7543 0.0 0.0
						CHANNELS 6 Xposition Yposition Zposition Zrotation Xrotation Yrotation 
						End Site
						{
							OFFSET 0.0 0.0 0.0
						}
					}
				}
			}
		}
		JOINT UpperLeg_R
		{
			OFFSET -2.19251 6.46944 0.0
			CHANNELS 6 Xposition Yposition Zposition Zrotation Xrotation Yrotation 
			JOINT LowerLeg_R
			{
				OFFSET -39.0811 -0.00228153 -0.0401928
				CHANNELS 6 Xposition Yposition Zposition Zrotation Xrotation Yrotation 
				JOINT Foot_R
				{
					OFFSET -40.9854 0.0 0.0
					CHANNELS 6 Xposition Yposition Zposition Zrotation Xrotation Yrotation 
					JOINT Toes_R
					{
						OFFSET -11.7543 0.0 0.0
						CHANNELS 6 Xposition Yposition Zposition Zrotation Xrotation Yrotation 
						End Site
						{
							OFFSET 0.0 0.0 0.0
						}
					}
				}
			}
		}
	}
}
MOTION
Frames:	4
Frame Time:	0.0333333
0.000000 0.000000 0.000000 0.000000 0.000000 -0.000000 -9.638780 89.414700 -1.136240 86.633700 -5.138920 13.649400 15.735700 0.000005 -0.000001 78.203900 81.163600 -73.877600 8.984550 -0.406207 -0.000000 9.695420 -3.518270 8.947000 16.377300 -0.000001 -0.000001 23.883500 -11.655200 5.056700 6.456720 -0.000001 -0.000000 16.500100 -13.242600 13.109300 12.994200 -0.242716 4.980390 -87.501100 -6.109260 -67.702500 5.348090 -0.000007 -0.000001 -47.039800 -50.796800 -58.464200 24.328600 0.000019 0.000005 6.446940 12.667500 -27.261200 22.291600 -0.000001 0.000005 17.028600 5.154030 3.846700 12.994500 -0.242716 -4.980390 87.700400 10.257200 -77.291400 -5.348130 -0.000001 -0.000004 -59.044100 24.377600 -6.948020 -24.328900 0.000322 -0.000009 0.787847 2.961050 -14.925600 -22.291500 -0.000108 -0.000004 13.154800 5.363230 -1.778330 -2.192480 -6.469440 -0.000000 -164.394000 -10.094400 1.288700 39.081100 -0.000007 -0.000012 -0.364451 0.512496 35.418600 40.985400 -0.000006 -0.000013 -6.929340 4.562630 -71.044700 11.754300 -0.000000 0.000003 -0.000061 -0.000669 -16.603400 -2.192510 6.469440 -0.000001 -178.135000 23.351700 -175.946000 -39.081100 -0.002282 -0.040193 -0.138084 0.218195 32.941200 -40.985400 0.000008 0.000006 10.496200 11.416800 -74.580100 -11.754300 -0.000006 -0.000006 -0.001762 -0.025691 -17.617700
0.000000 0.000000 0.000000 0.000000 0.000000 -0.000000 -9.757380 89.397000 -1.097210 86.624400 -4.734340 13.721200 15.735700 0.000005 -0.000001 78.780200 81.274300 -74.557100 8.984550 -0.406207 -0.000000 9.500450 -3.311930 8.716940 16.377300 -0.000001 -0.000001 23.871700 -11.567100 4.853560 6.456720 -0.000001 -0.000000 16.398300 -13.161300 13.074800 12.994200 -0.242716 4.980390 -87.482300 -6.128620 -67.615100 5.348090 -0.000007 -0.000001 -46.633300 -50.134200 -59.555600 24.328600 0.000019 0.000005 6.491440 12.131600 -28.432500 22.291600 -0.000001 0.000005 16.553200 5.159560 3.713570 12.994500 -0.242716 -4.980390 87.717400 10.256400 -77.381700 -5.348130 -0.000001 -0.000004 -59.007500 24.500200 -6.864060 -24.328900 0.000322 -0.000009 0.753615 2.797290 -15.104500 -22.291500 -0.000108 -0.000004 13.122200 5.363610 -1.789840 -2.192480 -6.469440 -0.000000 -164.379000 -9.762670 1.250690 39.081100 -0.000007 -0.000012 -0.364009 0.511606 35.432800 40.985400 -0.000006 -0.000013 -6.986060 4.651600 -71.024000 11.754300 -0.000000 0.000003 -0.000064 -0.000701 -16.604700 -2.192510 6.469440 -0.000001 -178.111000 23.552700 -175.823000 -39.081100 -0.002282 -0.040193 -0.139267 0.220267 32.912000 -40.985400 0.000008 0.000006 10.493700 11.186600 -74.622400 -11.754300 -0.000006 -0.000006 -0.001623 -0.023894 -17.544700
0.000000 0.000000 0.000000 0.000000 0.000000 -0.000000 -9.890470 89.380500 -1.067250 86.609100 -4.258640 13.820100 15.735700 0.000005 -0.000001 79.311200 81.391100 -75.196000 8.984550 -0.406207 -0.000000 9.289400 -3.120910 8.479130 16.377300 -0.000001 -0.000001 23.883400 -11.390300 4.586040 6.456720 -0.000001 -0.000000 16.306500 -12.994200 12.935400 12.994200 -0.242716 4.980390 -87.450200 -6.188180 -67.553100 5.348090 -0.000007 -0.000001 -46.211100 -49.439800 -61.072600 24.328600 0.000019 0.000005 6.609040 11.392500 -30.394700 22.291600 -0.000001 0.000005 16.377600 5.168230 3.503720 12.994500 -0.242716 -4.980390 87.745700 10.227700 -77.499800 -5.348130 -0.000001 -0.000004 -58.995600 24.802100 -6.978940 -24.328900 0.000322 -0.000009 0.720009 2.663630 -15.153200 -22.291500 -0.000108 -0.000004 13.270700 5.362840 -1.766240 -2.192480 -6.469440 -0.000000 -164.370000 -9.331970 1.214990 39.081100 -0.000007 -0.000012 -0.362272 0.509134 35.434400 40.985400 -0.000006 -0.000013 -7.047370 4.763820 -70.989200 11.754300 -0.000000 0.000003 -0.000065 -0.000713 -16.605100 -2.192510 6.469440 -0.000001 -178.121000 23.878900 -175.648000 -39.081100 -0.002282 -0.040193 -0.138013 0.218771 32.859300 -40.985400 0.000008 0.000006 10.520800 11.021000 -74.671900 -11.754300 -0.000006 -0.000006 -0.001734 -0.025341 -17.603500
0.000000 0.000000 0.000000 0.000000 0.000000 -0.000000 -10.001100 89.360400 -1.038990 86.593200 -3.785560 13.942600 15.735700 0.000005 -0.000001 79.878200 81.495100 -75.876100 8.984550 -0.406207 -0.000000 9.103160 -2.926420 8.232060 16.377300 -0.000001 -0.000001 23.856300 -11.107500 4.294280 6.456720 -0.000001 -0.000000 16.242800 -12.731700 12.717800 12.994200 -0.242716 4.980390 -87.409900 -6.253670 -67.447500 5.348090 -0.000007 -0.000001 -46.063400 -48.728000 -63.212900 24.328600 0.000019 0.000005 6.815800 10.631500 -32.938200 22.291600 -0.000001 0.000005 16.688800 5.182350 3.157720 12.994500 -0.242716 -4.980390 87.782900 10.197100 -77.664500 -5.348130 -0.000001 -0.000004 -59.036000 24.885200 -7.207470 -24.328900 0.000322 -0.000009 0.745302 2.733060 -15.280400 -22.291500 -0.000108 -0.000004 13.323600 5.362340 -1.751030 -2.192480 -6.469440 -0.000000 -164.364000 -8.896300 1.177740 39.081100 -0.000007 -0.000012 -0.368374 0.517188 35.461700 40.985400 -0.000006 -0.000013 -7.107320 4.848270 -70.958300 11.754300 -0.000000 0.000003 -0.000059 -0.000655 -16.602900 -2.192510 6.469440 -0.000001 -178.166000 24.245400 -175.461000 -39.081100 -0.002282 -0.040193 -0.139537 0.221342 32.834400 -40.985400 0.000008 0.000006 10.540900 10.860200 -74.728900 -11.754300 -0.000006 -0.000006 -0.001711 -0.025040 -17.591300
